<svg width="27" height="26" viewBox="0 0 27 26" fill="none" xmlns="http://www.w3.org/2000/svg">
<path d="M13.0636 26C20.2784 26 26.1271 20.1797 26.1271 13C26.1271 5.8203 20.2784 0 13.0636 0C5.84876 0 0 5.8203 0 13C0 20.1797 5.84876 26 13.0636 26Z" fill="#0D004C"/>
<path d="M16.7187 13C16.7187 19.0207 15.0824 23.9022 13.0635 23.9022C11.6598 23.9022 10.4406 21.5412 9.8284 18.0786C10.5506 18.0786 11.2727 18.078 11.9942 18.0754C13.9299 18.0678 15.5325 16.8193 15.9947 14.9777C16.1529 14.3451 16.104 13.7018 16.1078 13.0617C16.111 12.4425 15.6895 11.9956 15.111 11.9905C14.5154 11.9848 14.0857 12.4234 14.0768 13.0521C14.0723 13.3528 14.0787 13.6541 14.0755 13.9555C14.0621 15.1836 13.1989 16.0412 11.9707 16.0431C11.1646 16.0437 10.3586 16.0444 9.55251 16.0437C9.45842 15.0775 9.4082 14.0565 9.4082 13C9.4082 6.97869 11.0451 2.09781 13.0635 2.09781C14.4671 2.09781 15.6863 4.45751 16.2985 7.92015C15.5751 7.91952 14.8523 7.92079 14.1295 7.92333C12.2676 7.93096 10.7018 9.0981 10.1812 10.8431C9.97524 11.5328 10.0242 12.2397 10.0217 12.9428C10.0204 13.5588 10.4457 14.0057 11.0254 14.0082C11.609 14.0114 12.0394 13.5759 12.0527 12.9631C12.0591 12.6701 12.0527 12.3764 12.0546 12.0833C12.061 10.8081 12.916 9.95629 14.1899 9.95566C14.9852 9.95502 15.7792 9.95502 16.5744 9.95502C16.6685 10.9213 16.7187 11.9428 16.7187 13Z" fill="#00C0F3"/>
<path d="M22.8704 9.70074C21.8864 10.6892 20.8998 11.6758 19.9106 12.6599C19.4644 13.1043 18.8445 13.1138 18.4294 12.6917C18.0277 12.2836 18.0467 11.6612 18.4784 11.2264C18.8884 10.8132 19.3023 10.4032 19.7511 9.95502H16.5745C16.5052 9.24367 16.4124 8.56284 16.2986 7.92015C17.3437 7.92015 18.3881 7.92206 19.4332 7.92206H19.7549C19.2991 7.46944 18.8935 7.06959 18.4911 6.66592C18.0474 6.2203 18.0245 5.59477 18.4339 5.18411C18.8503 4.76519 19.4688 4.77917 19.9157 5.22416C20.9042 6.20949 21.8908 7.19546 22.8755 8.18397C23.3338 8.64421 23.3319 9.23731 22.8704 9.70074Z" fill="#C7EAFB"/>
<path d="M6.40902 18.1148C6.84511 18.5465 7.27866 18.9603 7.69441 19.3907C8.18516 19.8999 8.04277 20.7078 7.42042 21.0123C7.0371 21.1999 6.58957 21.1426 6.2768 20.8331C5.2457 19.8121 4.21841 18.788 3.20003 17.7557C2.81289 17.3634 2.81352 16.7525 3.20003 16.3616C4.21969 15.3292 5.24506 14.3038 6.27807 13.2848C6.6811 12.8875 7.29582 12.904 7.68868 13.295C8.08599 13.6897 8.09617 14.3121 7.69568 14.7253C7.27675 15.1569 6.84321 15.5752 6.41411 16.0011C6.47959 16.0755 6.55524 16.0418 6.62008 16.0418C7.59714 16.0431 8.57484 16.0437 9.55255 16.0437C9.62184 16.7544 9.71465 17.4359 9.82844 18.0786C8.78272 18.0786 7.737 18.0767 6.69127 18.078C6.60863 18.078 6.52091 18.0544 6.40902 18.1148Z" fill="#C7EAFB"/>
</svg>
