<svg width="27" height="26" viewBox="0 0 27 26" fill="none" xmlns="http://www.w3.org/2000/svg">
<path d="M13.5071 26C20.7565 26 26.6333 20.1797 26.6333 13C26.6333 5.8203 20.7565 0 13.5071 0C6.25767 0 0.380859 5.8203 0.380859 13C0.380859 20.1797 6.25767 26 13.5071 26Z" fill="#0D004C"/>
<path d="M22.8476 9.89341C22.5755 10.0716 22.2542 10.1783 21.8894 10.1789C20.2919 10.1808 18.6951 10.1808 17.0976 10.1802H15.951C15.4643 9.46034 14.9789 8.73983 14.4934 8.01869C14.5445 7.97142 14.6007 7.92735 14.662 7.88583C14.8722 7.74275 15.1002 7.64183 15.3461 7.58498C15.5933 7.52813 15.8584 7.51536 16.1414 7.54921C16.1931 7.5556 16.2148 7.54985 16.2295 7.50769C16.3349 7.19854 16.5732 6.96604 16.9462 6.8121C17.1576 6.72523 17.3863 6.68244 17.6239 6.68307C17.8072 6.68307 17.9918 6.70287 18.1617 6.76356C18.2115 6.78144 18.239 6.7725 18.2601 6.73545C18.2927 6.6786 18.3265 6.62303 18.3661 6.56938C18.7634 6.03347 19.5587 5.74987 20.3418 5.84823C21.0067 5.93127 21.4972 6.20913 21.7872 6.66838C21.9974 7.00053 22.0287 7.34929 21.8818 7.70315C21.8645 7.74403 21.8492 7.76894 21.9361 7.77597C22.3845 7.81174 22.7626 7.9529 23.0494 8.22053C23.273 8.42876 23.3956 8.66766 23.4065 8.93401C23.4212 9.31854 23.2327 9.64174 22.8476 9.89341Z" fill="#C7EAFB"/>
<path d="M23.0443 18.9968C21.0629 16.0573 19.0808 13.1184 17.0975 10.1802C16.5144 9.31533 15.9306 8.44983 15.3461 7.58496C14.9929 7.06183 14.6397 6.5387 14.2864 6.01557C14.2117 5.90443 14.2098 5.83544 14.2871 5.72558C14.6428 5.21905 14.9884 4.70422 15.3384 4.19323C15.4298 4.05909 15.4924 3.91857 15.4489 3.75313C15.3966 3.5532 15.2656 3.42418 15.0644 3.38649C14.8594 3.34817 14.692 3.42865 14.5764 3.59792C14.2826 4.02588 13.9945 4.45831 13.702 4.88818C13.6777 4.92459 13.6707 4.98719 13.5998 4.98463C13.5761 4.9495 13.5506 4.91373 13.5263 4.87732C13.2427 4.45767 12.9629 4.03482 12.6736 3.61772C12.4647 3.31623 12.0891 3.29515 11.8784 3.56342C11.7391 3.74163 11.7385 3.94987 11.8873 4.17215C12.2348 4.69209 12.581 5.21394 12.9387 5.72686C13.0262 5.85205 13.0192 5.93189 12.9361 6.05389C11.0761 8.79986 9.2199 11.549 7.36307 14.2975C6.28422 15.895 5.20602 17.4932 4.12527 19.0894C4.03073 19.2287 3.95472 19.3717 4.00199 19.5442C4.05373 19.7333 4.17381 19.861 4.37246 19.9006C4.58772 19.9434 4.75379 19.861 4.87324 19.6854C5.20411 19.1986 5.53178 18.71 5.86265 18.2233C5.88629 18.1881 5.89204 18.1249 5.96677 18.1313C5.96677 18.5407 5.96485 18.947 5.96677 19.3532C5.96869 19.7524 6.14306 19.9268 6.53972 19.9268C7.49912 19.9274 8.45851 19.9274 9.41727 19.9274C13.1539 19.9274 16.8906 19.9236 20.6272 19.9319C20.9971 19.9332 21.2947 19.7901 21.2654 19.2849C21.2449 18.9406 21.2602 18.595 21.2634 18.2501C21.2634 18.2079 21.2334 18.153 21.296 18.114C21.6467 18.6353 21.9954 19.1546 22.3474 19.6719C22.4988 19.8949 22.6917 19.9658 22.9082 19.9057C23.0807 19.8578 23.1592 19.7192 23.2512 19.5895V19.3264C23.1822 19.2165 23.1171 19.1041 23.0443 18.9968ZM15.7843 18.9738C14.3235 18.9693 12.8627 18.9712 11.4025 18.9712C11.3782 18.9712 11.3539 18.9674 11.2913 18.9623C12.0674 17.6165 12.8333 16.2891 13.6183 14.9273C13.8457 15.3234 14.0565 15.6906 14.2679 16.0579C14.7987 16.9784 15.3289 17.8994 15.8622 18.8192C15.9229 18.924 15.9504 18.9744 15.7843 18.9738ZM20.1603 18.9751C19.1703 18.968 18.1796 18.9687 17.1889 18.9751C17.0656 18.9751 17.0171 18.9195 16.9634 18.8262C16.0034 17.1566 15.0408 15.4882 14.0782 13.8204C13.9128 13.5336 13.6758 13.4333 13.428 13.5393C13.2932 13.5981 13.2197 13.7118 13.1495 13.8325C12.1971 15.4856 11.2422 17.1355 10.2943 18.7905C10.2151 18.9284 10.1327 18.9802 9.97362 18.9757C9.5035 18.9636 9.03338 18.9712 8.56327 18.9712C8.0676 18.9712 7.57258 18.968 7.07755 18.9738C6.95938 18.9751 6.91658 18.9502 6.9185 18.8205C6.92552 18.1377 6.92361 17.4542 6.91914 16.7714C6.91914 16.6762 6.95171 16.6047 7.00154 16.53C9.17646 13.3094 11.3508 10.0876 13.5218 6.86382C13.6042 6.74118 13.6368 6.74757 13.716 6.86574C13.9747 7.25026 14.234 7.63479 14.4934 8.01867C14.9788 8.73981 15.4643 9.46032 15.951 10.1802C17.3786 12.2983 18.8075 14.4151 20.237 16.5319C20.2919 16.6124 20.3194 16.6916 20.3187 16.7912C20.3149 17.4619 20.3143 18.1326 20.3194 18.8032C20.3207 18.9259 20.3015 18.9757 20.1603 18.9751Z" fill="#44C8F5"/>
</svg>
