<svg width="27" height="26" viewBox="0 0 27 26" fill="none" xmlns="http://www.w3.org/2000/svg">
<path d="M13.3175 26C20.5323 26 26.381 20.1797 26.381 13C26.381 5.8203 20.5323 0 13.3175 0C6.10267 0 0.253906 5.8203 0.253906 13C0.253906 20.1797 6.10267 26 13.3175 26Z" fill="#0D004C"/>
<path d="M13.4292 12.9701C13.3427 13.2288 13.1584 13.2816 12.7814 13.157C12.44 13.0439 12.3294 13.117 12.2372 13.4888C12.2112 13.5937 12.2817 13.5918 12.332 13.6109C12.4871 13.6694 12.6504 13.7094 12.7998 13.7787C12.9746 13.8601 13.0268 14.019 12.9829 14.1989C12.9397 14.3782 12.8202 14.4831 12.6161 14.4875C12.4343 14.4729 12.2576 14.3966 12.0847 14.3254C11.9257 14.2593 11.8539 14.3032 11.8069 14.4513C11.7884 14.511 11.7624 14.5714 11.728 14.6236C11.6136 14.7971 11.4509 14.8613 11.2564 14.7819C11.0593 14.7005 10.997 14.5365 11.0383 14.3343C11.0504 14.2733 11.0771 14.2129 11.1089 14.1595C11.1775 14.0457 11.1343 13.9955 11.0205 13.9637C10.8915 13.9275 10.7631 13.8868 10.6391 13.8366C10.4236 13.7495 10.3282 13.5575 10.3931 13.363C10.4636 13.1526 10.6607 13.0534 10.8876 13.1208C11.0383 13.1659 11.1877 13.2187 11.3352 13.2753C11.4445 13.3172 11.4992 13.2924 11.552 13.1812C11.7319 12.7985 11.7369 12.801 11.325 12.6624C11.2424 12.6345 11.1591 12.609 11.0796 12.5747C10.8718 12.4844 10.7828 12.2918 10.8508 12.0916C10.9118 11.9104 11.1025 11.8055 11.3123 11.8608C11.5024 11.9104 11.6886 11.9778 11.873 12.049C11.9887 12.0935 12.065 12.0922 12.0974 11.9524C12.1095 11.8996 12.1406 11.8507 12.1679 11.803C12.2817 11.6059 12.4839 11.5366 12.6727 11.6282C12.8481 11.714 12.9448 11.9225 12.8494 12.1075C12.7394 12.3211 12.8208 12.3789 13.0141 12.4368C13.3974 12.5512 13.5137 12.7158 13.4292 12.9701Z" fill="#44C8F5"/>
<path d="M21.9546 10.3879C21.488 10.2156 21.0201 10.0472 20.5522 9.8781C20.1943 9.74905 20.2026 9.75032 20.2388 9.36763C20.2528 9.2246 20.2967 9.18709 20.4385 9.19027C20.8815 9.20044 21.3259 9.19409 21.7696 9.19409C22.1307 9.19345 22.3125 9.06313 22.3087 8.80695C22.3055 8.55267 22.1307 8.43316 21.7601 8.43316C21.3322 8.43252 20.9044 8.43379 20.476 8.43189C20.4232 8.43189 20.3272 8.45159 20.3259 8.40264C20.3215 8.22973 20.3437 8.05555 20.3577 7.88201C20.3679 7.75995 20.481 7.77267 20.5542 7.74533C21.05 7.56034 21.5503 7.38616 22.0449 7.19863C22.2686 7.11408 22.3525 6.9291 22.2845 6.72695C22.2108 6.50827 22.029 6.41291 21.7919 6.48856C21.5363 6.57056 21.2884 6.67736 21.0335 6.76064C20.8364 6.82484 20.6489 6.92655 20.4353 6.95516C20.4404 6.51081 20.2935 6.37286 19.8759 6.4358C19.0075 6.56802 18.1404 6.70851 17.272 6.84518C16.7896 6.92083 16.3064 6.99521 15.7972 7.07467C15.9562 6.61824 15.9632 6.17643 15.9543 5.73462C15.9517 5.58714 15.9797 5.52166 16.1475 5.53247C16.384 5.54836 16.623 5.54137 16.8601 5.53374C17.0947 5.52612 17.2295 5.38372 17.2307 5.15995C17.232 4.93746 17.0979 4.79125 16.8639 4.77854C16.6821 4.769 16.499 4.76709 16.3172 4.77854C16.178 4.7868 16.1094 4.74866 16.0699 4.60245C15.972 4.23629 15.8551 3.87521 15.74 3.5135C15.508 2.78563 14.9193 2.35081 14.1597 2.34636C13.5971 2.34382 13.0339 2.34382 12.4713 2.34636C11.7224 2.35081 11.1287 2.78308 10.8986 3.49252C10.8134 3.75506 10.7358 4.02078 10.6551 4.28523C10.5063 4.77536 10.5063 4.77536 10.006 4.77536C9.92721 4.77536 9.84775 4.77409 9.76829 4.77599C9.49112 4.78298 9.32457 4.93174 9.32966 5.16631C9.33474 5.39516 9.49239 5.53247 9.76129 5.53565C10.0149 5.53946 10.2686 5.53819 10.5222 5.53565C10.608 5.53501 10.6748 5.53438 10.6716 5.65516C10.6608 6.12558 10.6786 6.59408 10.8235 7.06959C10.7142 7.05433 10.6366 7.04416 10.5591 7.03208C9.26863 6.82993 7.9788 6.62587 6.68833 6.42626C6.37366 6.37795 6.2052 6.52352 6.19249 6.83883C6.19122 6.8757 6.19249 6.9132 6.19249 6.97042C5.75513 6.81404 5.34066 6.66401 4.92491 6.51717C4.63376 6.41482 4.43924 6.48284 4.35215 6.71296C4.26951 6.931 4.38902 7.13061 4.66618 7.23233C5.05904 7.37599 5.44682 7.54191 5.84922 7.65188C6.17724 7.74215 6.33616 7.89536 6.312 8.25135C6.30247 8.39629 6.29102 8.43951 6.141 8.43633C5.68139 8.42743 5.22178 8.43506 4.76154 8.43189C4.62804 8.43125 4.50853 8.45922 4.42144 8.56538C4.32418 8.68489 4.29621 8.81839 4.36359 8.96396C4.43924 9.1267 4.57273 9.19409 4.74564 9.19409C5.23704 9.19409 5.72907 9.1979 6.22046 9.19091C6.34188 9.18964 6.39146 9.22269 6.38447 9.34665C6.38002 9.41721 6.39019 9.49032 6.40672 9.55897C6.44232 9.71091 6.38765 9.77765 6.23699 9.82787C5.70555 10.0071 5.17983 10.2036 4.65347 10.3962C4.3833 10.4947 4.27714 10.6791 4.35469 10.9003C4.43924 11.1412 4.62486 11.2118 4.91728 11.1088C5.33494 10.962 5.75068 10.8113 6.16706 10.6619C6.46838 10.5538 6.46838 10.5538 6.50652 10.8793C6.54276 11.1908 6.71503 11.3129 7.03097 11.2512C7.1632 11.2258 7.29479 11.1997 7.42638 11.1717C8.20574 11.0058 8.98447 10.8393 9.78609 10.6689C9.74858 10.8304 9.7187 10.9658 9.68501 11.1012C9.15738 13.2098 8.63102 15.3184 8.10085 17.4264C8.03856 17.6762 8.08369 17.8682 8.29983 18.0303C8.63484 18.2826 8.95523 18.5547 9.28516 18.8147C9.51655 18.9978 9.64051 18.9972 9.87762 18.8128C10.1275 18.6183 10.3805 18.4269 10.6182 18.2178C10.7638 18.0894 10.8699 18.0595 11.0257 18.2095C11.2126 18.3907 11.4325 18.5376 11.6321 18.706C11.8432 18.8834 12.0479 19.0709 12.3511 18.8363V19.0741C12.3511 20.4141 12.3511 21.7535 12.3518 23.093C12.3518 23.5545 12.4509 23.6556 12.9029 23.6562H13.735C14.173 23.6556 14.2779 23.5507 14.2779 23.1089V18.8471C14.5481 19.0366 14.7496 18.9145 14.9492 18.7429C15.1653 18.5573 15.3974 18.3901 15.6116 18.2025C15.7438 18.0862 15.8405 18.0633 15.9854 18.1962C16.2187 18.4098 16.4749 18.5979 16.7234 18.795C16.9866 19.0035 17.1061 19.0035 17.3738 18.7912C17.6967 18.5357 18.0139 18.2718 18.3394 18.0201C18.5415 17.8637 18.586 17.6794 18.5244 17.4346C18.0737 15.649 17.6306 13.8607 17.1862 12.0738C17.0712 11.6123 16.9599 11.1495 16.8423 10.6695C17.7895 10.8698 18.7017 11.0637 19.6146 11.2544C19.9159 11.3173 20.099 11.1736 20.1257 10.8634C20.1295 10.8164 20.1352 10.7687 20.1359 10.7217C20.1365 10.5812 20.1816 10.55 20.3234 10.6041C20.7728 10.7776 21.228 10.9353 21.6819 11.098C22.0016 11.2124 22.1841 11.1552 22.2763 10.9149C22.3672 10.6784 22.2616 10.5004 21.9546 10.3879ZM11.355 4.59037C11.458 4.31765 11.5247 4.03159 11.6137 3.75316C11.751 3.3266 12.0492 3.10983 12.5005 3.10792C13.0472 3.10538 13.5939 3.10474 14.14 3.10792C14.5722 3.11047 14.8659 3.31389 15.002 3.71756C15.1177 4.0602 15.2168 4.40856 15.33 4.77536H14.4546C13.4719 4.77536 12.4897 4.77345 11.5069 4.7779C11.3626 4.77853 11.2857 4.77599 11.355 4.59037ZM15.1978 5.7003C15.1882 6.07154 15.206 6.44342 15.0814 6.80386C14.7935 7.63536 13.9988 8.10704 13.0491 8.00533C12.2132 7.9157 11.5463 7.24631 11.4611 6.4002C11.4383 6.17198 11.4491 5.94122 11.43 5.71301C11.4166 5.55599 11.484 5.53184 11.6213 5.53374C12.1833 5.54074 12.7459 5.53692 13.3078 5.53692C13.8781 5.53692 14.4483 5.5401 15.0185 5.53438C15.1444 5.53311 15.2016 5.55663 15.1978 5.7003ZM13.3053 22.9003C13.1534 22.9016 13.1076 22.8635 13.1089 22.7058C13.1152 21.2641 13.1146 19.8229 13.1089 18.3818C13.1082 18.221 13.1737 18.0919 13.311 18.0907C13.4471 18.0894 13.5221 18.2134 13.5202 18.3774C13.5125 19.0982 13.517 19.8185 13.517 20.5394C13.517 21.2602 13.5094 21.9805 13.5221 22.7014C13.5253 22.8838 13.456 22.8991 13.3053 22.9003ZM19.6362 7.36264C19.5536 8.38039 19.476 9.39878 19.3953 10.4324C18.45 10.2309 17.5162 10.0307 16.5817 9.83296C16.4437 9.80372 16.3045 9.75668 16.1634 9.82279C15.9822 9.90797 15.9129 10.0853 15.9727 10.3263C16.5378 12.6046 17.0985 14.8842 17.6783 17.1587C17.7482 17.434 17.698 17.5808 17.4736 17.7442C17.0343 18.064 17.0445 18.0786 16.6224 17.7398C16.4437 17.5961 16.267 17.4492 16.0852 17.3088C15.8653 17.139 15.7318 17.1403 15.5099 17.3151C15.2429 17.5255 14.9715 17.7328 14.7159 17.9572C14.5932 18.064 14.5144 18.0538 14.3974 17.9534C14.1451 17.7372 13.8812 17.5338 13.62 17.3278C13.3746 17.1339 13.2506 17.1339 13.0084 17.3253C12.7408 17.5363 12.4694 17.7423 12.2125 17.9661C12.0962 18.0671 12.0263 18.0532 11.9176 17.9597C11.6588 17.7385 11.3906 17.5281 11.1223 17.3183C10.8897 17.1358 10.7632 17.1378 10.5299 17.3208C10.2559 17.5363 9.98061 17.7499 9.71425 17.9743C9.62017 18.0532 9.56804 18.0462 9.45743 17.9864C8.95014 17.7105 8.87323 17.3596 9.02706 16.7938C9.59983 14.6814 10.1058 12.5512 10.6379 10.4273C10.7638 9.92323 10.5642 9.71981 10.0524 9.83042C9.1186 10.0319 8.18476 10.2315 7.23376 10.435C7.16829 9.5844 7.10408 8.74846 7.04051 7.91188C7.03415 7.83306 7.03352 7.7536 7.02589 7.67477C6.98457 7.23233 6.98393 7.2336 7.41176 7.30225C8.67743 7.50504 9.9431 7.70783 11.2094 7.90553C11.3105 7.92078 11.3817 7.95766 11.4529 8.02885C12.4662 9.04215 14.1648 9.0447 15.1736 8.03394C15.2512 7.95638 15.33 7.92015 15.4381 7.90362C16.7832 7.69511 18.1271 7.48088 19.4716 7.26856C19.5485 7.25648 19.6496 7.19418 19.6362 7.36264Z" fill="#44C8F5"/>
<path d="M13.4292 12.9701C13.3427 13.2288 13.1584 13.2816 12.7814 13.157C12.44 13.0439 12.3294 13.117 12.2372 13.4888C12.2112 13.5937 12.2817 13.5918 12.332 13.6109C12.4871 13.6694 12.6504 13.7094 12.7998 13.7787C12.9746 13.8601 13.0268 14.019 12.9829 14.1989C12.9397 14.3782 12.8202 14.4831 12.6161 14.4875C12.4343 14.4729 12.2576 14.3966 12.0847 14.3254C11.9257 14.2593 11.8539 14.3032 11.8069 14.4513C11.7884 14.511 11.7624 14.5714 11.728 14.6236C11.6136 14.7971 11.4509 14.8613 11.2564 14.7819C11.0593 14.7005 10.997 14.5365 11.0383 14.3343C11.0504 14.2733 11.0771 14.2129 11.1089 14.1595C11.1775 14.0457 11.1343 13.9955 11.0205 13.9637C10.8915 13.9275 10.7631 13.8868 10.6391 13.8366C10.4236 13.7495 10.3282 13.5575 10.3931 13.363C10.4636 13.1526 10.6607 13.0534 10.8876 13.1208C11.0383 13.1659 11.1877 13.2187 11.3352 13.2753C11.4445 13.3172 11.4992 13.2924 11.552 13.1812C11.7319 12.7985 11.7369 12.801 11.325 12.6624C11.2424 12.6345 11.1591 12.609 11.0796 12.5747C10.8718 12.4844 10.7828 12.2918 10.8508 12.0916C10.9118 11.9104 11.1025 11.8055 11.3123 11.8608C11.5024 11.9104 11.6886 11.9778 11.873 12.049C11.9887 12.0935 12.065 12.0922 12.0974 11.9524C12.1095 11.8996 12.1406 11.8507 12.1679 11.803C12.2817 11.6059 12.4839 11.5366 12.6727 11.6282C12.8481 11.714 12.9448 11.9225 12.8494 12.1075C12.7394 12.3211 12.8208 12.3789 13.0141 12.4368C13.3974 12.5512 13.5137 12.7158 13.4292 12.9701Z" fill="#44C8F5"/>
<path d="M13.4292 12.9701C13.3427 13.2288 13.1584 13.2816 12.7814 13.157C12.44 13.0439 12.3294 13.117 12.2372 13.4888C12.2112 13.5937 12.2817 13.5918 12.332 13.6109C12.4871 13.6694 12.6504 13.7094 12.7998 13.7787C12.9746 13.8601 13.0268 14.019 12.9829 14.1989C12.9397 14.3782 12.8202 14.4831 12.6161 14.4875C12.4343 14.4729 12.2576 14.3966 12.0847 14.3254C11.9257 14.2593 11.8539 14.3032 11.8069 14.4513C11.7884 14.511 11.7624 14.5714 11.728 14.6236C11.6136 14.7971 11.4509 14.8613 11.2564 14.7819C11.0593 14.7005 10.997 14.5365 11.0383 14.3343C11.0504 14.2733 11.0771 14.2129 11.1089 14.1595C11.1775 14.0457 11.1343 13.9955 11.0205 13.9637C10.8915 13.9275 10.7631 13.8868 10.6391 13.8366C10.4236 13.7495 10.3282 13.5575 10.3931 13.363C10.4636 13.1526 10.6607 13.0534 10.8876 13.1208C11.0383 13.1659 11.1877 13.2187 11.3352 13.2753C11.4445 13.3172 11.4992 13.2924 11.552 13.1812C11.7319 12.7985 11.7369 12.801 11.325 12.6624C11.2424 12.6345 11.1591 12.609 11.0796 12.5747C10.8718 12.4844 10.7828 12.2918 10.8508 12.0916C10.9118 11.9104 11.1025 11.8055 11.3123 11.8608C11.5024 11.9104 11.6886 11.9778 11.873 12.049C11.9887 12.0935 12.065 12.0922 12.0974 11.9524C12.1095 11.8996 12.1406 11.8507 12.1679 11.803C12.2817 11.6059 12.4839 11.5366 12.6727 11.6282C12.8481 11.714 12.9448 11.9225 12.8494 12.1075C12.7394 12.3211 12.8208 12.3789 13.0141 12.4368C13.3974 12.5512 13.5137 12.7158 13.4292 12.9701Z" fill="#C7EAFB"/>
<path d="M13.3156 7.70845C13.1224 7.69701 12.9361 7.65569 12.7937 7.50185C12.7149 7.41667 12.6869 7.31623 12.7041 7.20307C12.7422 6.95579 12.9844 6.70342 13.2292 6.64938C13.3372 6.62523 13.4383 6.64366 13.5337 6.6907C13.7288 6.78733 13.8579 6.94371 13.9227 7.14968C13.9748 7.31369 13.9227 7.45481 13.7797 7.56479C13.6443 7.6684 13.486 7.70083 13.3156 7.70845Z" fill="#44C8F5"/>
<path d="M12.1459 6.63605C12.02 6.63795 11.9228 6.5426 11.9221 6.41737C11.9215 6.29468 12.0219 6.19233 12.1427 6.19297C12.259 6.1936 12.3601 6.29213 12.3646 6.4091C12.369 6.52988 12.2679 6.63477 12.1459 6.63605Z" fill="#44C8F5"/>
<path d="M14.4994 6.63667C14.376 6.63731 14.2762 6.5375 14.2769 6.41481C14.2775 6.29403 14.383 6.19105 14.5025 6.19359C14.6195 6.19613 14.7193 6.29657 14.7206 6.41354C14.7218 6.53687 14.6233 6.63603 14.4994 6.63667Z" fill="#44C8F5"/>
</svg>
