<svg width="164" height="160" viewBox="0 0 164 160" fill="none" xmlns="http://www.w3.org/2000/svg">
<g clip-path="url(#clip0_781_891)">
<path d="M103.274 110.392C103.274 110.392 106.574 129.202 86.6768 135.878L113.745 141.164C113.745 141.164 125.644 124.069 126.219 122.718C126.795 121.368 126.219 100.885 126.219 100.885L114.23 95.8369L103.274 110.392Z" fill="#18114A"/>
<path opacity="0.12" d="M78.3581 133.841C80.9964 136.682 81.2187 140.197 80.8275 143.838C80.6399 145.594 80.3513 147.389 79.4463 148.917C78.9863 149.713 78.3205 150.378 77.5152 150.845C77.4796 150.563 77.4532 150.255 77.4359 149.92C76.7965 136.965 77.9958 133.714 45.251 122.305C54.3104 125.328 64.2141 125.892 72.8073 130.011C74.851 130.997 76.8282 132.192 78.3581 133.841Z" fill="#2C343C"/>
<path d="M81.9993 0C36.7124 0 0 35.817 0 80.0007C0 124.184 36.7124 160 81.9993 160C127.286 160 164 124.183 164 80.0007C164 35.8184 127.288 0 81.9993 0ZM125.635 61.0847C124.593 61.5072 123.48 61.648 122.372 61.8212C122.256 61.8398 122.14 61.8497 122.023 61.8507C121.942 61.4353 121.849 61.0242 121.751 60.6144C119.53 51.2395 114.502 43.0868 107.698 37.2687C110.658 33.6077 115.692 32.2982 120.715 33.9457C127.159 36.0578 132.182 42.3448 132.654 48.8712C132.696 49.471 132.73 50.0765 132.762 50.4975C132.348 55.3638 130.432 59.1177 125.635 61.0847Z" fill="url(#paint0_radial_781_891)"/>
<path d="M116.517 106.889C116.416 106.879 116.315 106.874 116.212 106.874C115.298 106.874 114.45 107.288 113.743 108C114.678 107.669 115.603 107.303 116.517 106.902C116.517 106.915 116.517 106.929 116.524 106.941C117.238 111.135 117.132 115.423 116.212 119.579C116.166 119.784 116.118 119.993 116.076 120.201H116.094C116.133 120.201 116.172 120.201 116.212 120.201C118.666 120.201 120.657 117.217 120.657 113.538C120.657 110.011 118.83 107.123 116.517 106.889ZM147.446 52.521C147.383 52.1117 147.306 51.7076 147.213 51.3087C147.199 51.2411 147.183 51.1749 147.166 51.1087C147.127 50.9496 147.085 50.7919 147.042 50.6342C147.042 50.6215 147.042 50.6089 147.032 50.5962C146.508 48.7122 145.671 46.9352 144.701 45.2089C142.669 41.5832 140.082 38.3207 137.297 35.2117L137.277 35.1891C137.451 34.9075 137.738 34.9075 137.975 34.8033C139.356 34.2401 139.896 33.4108 139.612 32.2604C139.612 32.2421 139.603 32.2238 139.597 32.2054C139.527 31.9446 139.431 31.6912 139.309 31.4493C138.961 30.7749 138.507 30.1573 137.965 29.6188C135.107 26.6703 131.505 24.7624 127.78 23.046C123.835 21.2296 119.761 19.8877 115.298 19.837C107.828 19.7581 100.568 24.1077 97.6069 30.62C97.4481 30.9748 97.2995 31.1902 97.1306 31.2902C96.6327 31.0551 96.1044 30.8044 95.5344 30.5439C94.5241 30.0736 93.5037 29.6639 92.4818 29.3076C92.4725 29.3025 92.4622 29.2991 92.4515 29.2978C92.108 29.1781 91.7631 29.0626 91.4196 28.957C91.3128 28.9232 91.2045 28.888 91.0963 28.8571C85.3713 27.1467 79.6271 27.2035 73.8637 29.0274C73.7093 29.0781 73.5505 29.133 73.3903 29.1823C72.258 29.5577 71.1466 29.9906 70.0607 30.4792C69.5281 30.7199 68.9883 30.9593 68.4558 31.2057C68.2994 31.0332 68.1757 30.8348 68.0906 30.62C65.1305 24.1077 57.8708 19.7581 50.4005 19.837C45.9364 19.8877 41.8635 21.2296 37.9176 23.046C34.1926 24.7624 30.5916 26.6703 27.7339 29.6188C27.1915 30.1577 26.7377 30.7751 26.3888 31.4493C26.0294 32.1688 25.9226 32.7856 26.0727 33.308C26.2517 33.9346 26.7944 34.4344 27.7181 34.8033C27.9548 34.9033 28.242 34.9033 28.4166 35.1891L28.408 35.199C25.6196 38.3136 23.0275 41.5803 20.9924 45.2103C19.6935 47.5168 18.6428 49.9006 18.2502 52.5224C18.0547 53.7074 18.1038 54.9186 18.3946 56.0848C18.4148 56.1693 18.4379 56.251 18.4638 56.3327C19.1191 58.4884 20.75 60.157 23.3291 61.1722C24.185 61.5045 24.5588 61.9607 24.7882 62.7351C24.807 62.7985 24.8258 62.8647 24.8431 62.9323C24.9008 63.1547 24.9614 63.3758 25.0249 63.5955L25.0856 63.8039C25.1144 63.8996 25.1433 63.9968 25.175 64.0925C26.5894 68.5589 29.2941 72.0692 34.1233 73.9363C36.6158 74.9022 39.218 75.0881 41.8592 74.7572C42.2648 74.7065 42.5058 74.7319 42.6501 74.867C42.6501 74.8769 42.6501 74.8882 42.6501 74.898C42.7463 76.1878 42.8907 77.4607 43.0831 78.7167C43.1139 78.7069 43.1452 78.6989 43.1769 78.6928C43.0076 77.6499 42.8963 76.5989 42.8435 75.5443C42.8507 75.633 42.8594 75.7217 42.8666 75.8104C42.9474 76.6919 43.0557 77.5691 43.1812 78.4379C43.185 78.4369 43.189 78.4369 43.1928 78.4379C43.1928 78.4506 43.1928 78.4647 43.2 78.4773C43.2139 78.5485 43.2235 78.6205 43.2289 78.6928L43.2635 78.6843C43.2635 78.6984 43.2534 78.7125 43.2476 78.728C43.2403 78.7452 43.2321 78.7622 43.2231 78.7786C43.2259 78.7987 43.2259 78.8191 43.2231 78.8392C43.2275 78.9058 43.2275 78.9726 43.2231 79.0391C43.2231 79.0391 43.2231 79.049 43.2231 79.0546C43.2159 79.0053 43.2072 78.9575 43.2 78.9138C43.2 78.8983 43.2 78.8842 43.1928 78.8688C43.1668 78.9279 43.1408 78.9885 43.1206 79.049C42.5823 80.3895 42.0425 81.6412 41.5922 82.9282C39.8834 87.7931 38.3434 92.6932 37.1383 97.6538C35.4453 104.646 34.3961 111.754 34.4654 119.056C34.4807 121.902 34.8294 124.736 35.5045 127.505C35.6007 127.915 35.709 128.321 35.8292 128.721C38.7836 138.955 46.4733 146.411 57.9921 150.048C60.9796 150.99 64.0365 151.787 67.1669 152.102C68.8564 152.267 70.5586 152.263 72.2472 152.091C74.1235 151.909 76.0098 151.729 77.5195 150.849C78.3248 150.382 78.9906 149.718 79.4506 148.921C80.3555 147.394 80.6442 145.598 80.8318 143.843C81.0454 141.85 81.0757 139.9 80.6283 138.07C80.5922 137.929 80.5532 137.777 80.5099 137.633C80.1089 136.222 79.3732 134.923 78.3624 133.841C76.8325 132.192 74.8552 130.997 72.8087 130.015C64.2631 125.922 54.4257 125.339 45.4111 122.361L45.248 122.308L48.0985 122.636C48.3669 122.665 48.6512 122.695 48.8966 122.586C49.4494 122.341 49.4739 121.632 49.3757 121.019C49.3642 120.945 49.3498 120.87 49.3353 120.8C48.391 116.203 48.2529 111.483 48.9269 106.841C60.564 111.801 73.7179 111.66 86.4115 111.435C92.3534 111.329 98.4065 111.201 104.265 110.308C104.515 109.59 104.851 108.903 105.265 108.261C105.275 108.244 105.285 108.227 105.297 108.21C104.888 108.321 104.48 108.427 104.071 108.524C104.041 108.524 104.015 108.54 103.985 108.545C99.0891 109.701 94.0622 110.017 89.0382 110.235C79.911 110.629 70.8097 110.394 61.8211 108.603C61.733 108.587 61.6464 108.568 61.5598 108.548C61.3693 108.513 61.1745 108.472 60.9825 108.433C59.7413 108.172 58.529 107.728 57.3513 107.261C56.7436 107.023 56.0696 106.657 55.8878 106.025C55.8587 105.922 55.8432 105.816 55.8416 105.709C55.8272 105.178 56.1447 104.834 56.556 104.583C56.5936 104.556 56.6326 104.53 56.6729 104.507C56.8871 104.382 57.1083 104.269 57.3354 104.167C59.2694 103.235 61.3679 102.835 63.4606 102.45C67.6677 101.674 71.9311 101.344 76.2003 101.204C76.6207 101.211 77.0381 101.133 77.4257 100.974C78.0145 100.692 78.1978 100.129 78.205 99.152C78.209 98.2895 78.1048 97.4298 77.8947 96.5921C77.8601 96.4513 77.8197 96.3006 77.7778 96.157C77.3232 94.5729 76.5539 93.1001 75.7168 91.6427C75.3183 90.9653 75.0024 90.2446 74.7758 89.4954C74.7268 89.3307 74.6849 89.166 74.6474 89.0012C74.3526 87.7429 74.4064 86.4307 74.8032 85.1994C75.1628 84.1257 75.7113 83.1213 76.424 82.2312C76.424 82.2538 76.424 82.2749 76.4125 82.2974C76.2562 83.1869 76.2343 84.0939 76.3475 84.9896C76.3983 85.4303 76.4764 85.8676 76.5814 86.2991C76.6218 86.4667 76.6636 86.6328 76.7098 86.7976C76.756 86.9623 76.7978 87.1017 76.8455 87.2524C77.443 89.1322 78.4071 90.9134 79.185 92.7438C79.3605 93.1525 79.5108 93.571 79.6353 93.997C79.6801 94.1378 79.7205 94.2941 79.7565 94.4434C80.2833 96.6019 80.0351 98.7422 78.9584 100.94C78.931 100.998 78.9021 101.056 78.8718 101.115C78.8415 101.174 78.7982 101.256 78.7593 101.333H78.791C79.6959 101.223 80.5229 101.067 81.3456 101.032L81.5404 101.023L81.7281 101.015L82.1322 100.994L82.3645 100.98H82.4049L82.5825 100.967H82.6229L82.7672 100.954C82.9115 100.94 83.0299 100.926 83.1468 100.908C84.2018 100.75 84.4457 100.391 84.1787 99.3589C84.1571 99.2787 84.1325 99.1956 84.1066 99.1083C83.9897 98.7155 83.8179 98.2395 83.5942 97.6594C83.0978 96.4203 82.5043 95.2204 81.819 94.0703C81.4159 93.3775 81.0958 92.6419 80.865 91.8779C80.8145 91.7075 80.7712 91.5371 80.7322 91.3682C80.1866 88.9745 80.7798 86.5441 82.7167 83.8097C82.7167 83.8322 82.7167 83.8547 82.708 83.8758C82.45 85.659 82.5545 87.4743 83.0154 89.218C83.0616 89.3997 83.1093 89.5813 83.1598 89.7601C83.6779 91.5906 84.4472 93.2803 85.0909 94.9968C85.2179 95.3366 85.3285 95.6764 85.4228 96.0162C85.4661 96.1664 85.5051 96.3171 85.5397 96.4682C85.8831 97.9324 85.9189 99.4494 85.6451 100.928C85.635 100.98 85.6263 101.033 85.6148 101.085C85.6032 101.137 85.5917 101.205 85.5787 101.265C85.5657 101.326 85.5599 101.356 85.5498 101.406C85.5397 101.457 85.5253 101.518 85.5123 101.572C85.4993 101.627 85.4907 101.661 85.4791 101.705C85.4676 101.748 85.4502 101.823 85.4344 101.882C85.4142 101.962 85.3925 102.041 85.3694 102.122C85.3463 102.202 85.3232 102.282 85.2987 102.362C85.2742 102.443 85.2511 102.521 85.2236 102.603C85.1962 102.685 85.1717 102.764 85.1443 102.844L85.1168 102.924C85.0707 103.059 85.0226 103.195 84.9725 103.33C84.9538 103.38 84.9336 103.431 84.9133 103.483C84.8931 103.535 84.8643 103.608 84.8383 103.672C84.7498 103.891 84.6536 104.11 84.5496 104.331L84.4544 104.536C84.4125 104.627 84.3692 104.718 84.3245 104.808L84.3649 104.784C86.0247 103.784 86.1863 102.419 86.9815 101.489C87.1219 101.343 87.3032 101.241 87.5028 101.194C87.7025 101.148 87.9117 101.16 88.1044 101.229C88.1847 101.196 88.2632 101.159 88.3397 101.118C88.3772 101.098 88.4133 101.078 88.4465 101.057C88.4797 101.036 88.5114 101.016 88.5417 100.995C89.4654 100.354 89.3759 99.2139 89.0526 97.9143C89.0368 97.8495 89.0209 97.7861 89.0036 97.7214C88.9862 97.6566 88.9617 97.5693 88.9401 97.4933C88.6168 96.3119 88.0395 95.2896 87.4795 94.2463C87.2495 93.8212 87.0657 93.3738 86.931 92.9114C86.918 92.8663 86.9065 92.8213 86.895 92.7706C86.5269 91.3372 86.7607 89.8221 87.9052 87.9592C87.9052 87.9789 87.9052 87.9973 87.9052 88.017C87.8707 88.9584 87.9614 89.9003 88.1751 90.819C88.2242 91.0246 88.2762 91.2274 88.3353 91.4259C88.7279 92.7607 89.3456 93.9238 89.959 95.077C90.115 95.3655 90.2389 95.6695 90.3285 95.9838C90.3545 96.0669 90.3761 96.15 90.3949 96.233C90.7644 97.8411 90.2174 99.411 89.9402 100.995C89.8969 101.239 89.8609 101.484 89.8349 101.729L89.8508 101.712C90.7167 100.83 91.7761 101.358 92.7243 101.403C95.5564 101.523 98.3781 101.814 101.173 102.275C102.925 102.569 104.656 102.972 106.355 103.482C107.22 103.742 108.375 103.952 109.012 104.548L109.033 104.567C109.069 104.601 109.103 104.637 109.136 104.674C109.894 104.257 110.7 103.926 111.536 103.689C112.602 103.386 113.706 103.233 114.816 103.234C117.691 103.218 120.465 104.263 122.583 106.158C123.623 107.081 124.455 108.205 125.026 109.457C125.597 110.71 125.896 112.065 125.902 113.437C125.902 117.91 122.775 121.712 118.423 123.089C118.145 123.178 117.86 123.257 117.573 123.324H117.596L117.498 123.34L117.424 123.352C116.968 123.426 116.512 123.501 116.056 123.578C111.247 124.389 106.435 125.408 101.807 126.884H101.798C98.0254 128.085 94.3725 129.586 90.9419 131.516C90.3703 131.837 89.8046 132.171 89.2446 132.518C84.362 135.539 84.0734 140.493 84.9667 145.689C84.9913 145.829 85.0173 145.97 85.049 146.111C85.0634 146.174 85.0764 146.239 85.0909 146.302C85.1053 146.366 85.1212 146.429 85.1371 146.494C85.1529 146.559 85.1601 146.59 85.1731 146.635C85.1861 146.68 85.1977 146.726 85.2107 146.776C85.2236 146.825 85.228 146.842 85.2381 146.874C85.2987 147.08 85.3651 147.282 85.4387 147.484C85.9424 148.876 86.7737 150.141 88.0236 150.943C89.9547 152.185 92.2336 152.001 94.4303 151.99C96.8492 151.978 99.2436 151.961 101.636 151.524C116.125 148.871 131.841 139.14 131.016 116.932C130.791 111.325 130.086 105.746 128.907 100.254L128.898 100.216C128.823 99.8635 128.747 99.511 128.669 99.159C128.1 96.6066 127.445 94.0721 126.703 91.5554C126.492 90.8364 126.275 90.1183 126.051 89.4011C125.827 88.6839 125.597 87.9682 125.361 87.2538C124.767 85.4543 124.137 83.6632 123.47 81.8806C123.206 81.185 122.776 80.5134 122.571 79.7573C122.555 79.6953 122.541 79.6333 122.528 79.57C122.49 79.3981 122.467 79.2233 122.46 79.0476C122.455 78.9759 122.455 78.9039 122.46 78.8321C122.461 78.6979 122.475 78.564 122.502 78.4323C122.505 78.4328 122.508 78.434 122.51 78.4357C122.513 78.4374 122.515 78.4396 122.516 78.4421C122.661 77.486 122.773 76.5201 122.855 75.5485C122.855 75.4781 122.866 75.4077 122.87 75.343C122.932 74.8079 123.147 74.677 123.84 74.7628C126.482 75.0937 129.083 74.9036 131.577 73.9419C136.822 71.9073 139.564 67.9323 140.863 62.8971C141.088 62.0255 141.453 61.5298 142.366 61.175C146.311 59.6233 148.04 56.5396 147.446 52.521ZM99.5668 42.0746C100.242 41.5294 101.086 41.2224 101.963 41.203C103.158 41.3339 104.169 41.9197 105.128 42.6111C105.3 42.7164 105.426 42.8798 105.483 43.0701C105.507 43.1847 105.496 43.3038 105.451 43.4122C105.307 43.7924 104.953 43.7671 104.641 43.6939C103.112 43.363 101.577 43.1081 99.9969 43.2024C99.6953 43.2207 99.3821 43.1616 99.2753 42.8237C99.2717 42.8126 99.2688 42.8013 99.2666 42.7899C99.2626 42.7774 99.2592 42.7647 99.2565 42.7519C99.1974 42.459 99.3561 42.2421 99.5668 42.0746ZM97.1133 60.9089C97.103 61.6231 96.8316 62.3103 96.348 62.8467C95.8644 63.383 95.2004 63.7333 94.4755 63.8343C93.7507 63.9354 93.0127 63.7806 92.3945 63.3978C91.7763 63.0151 91.3184 62.4295 91.1035 61.7467C91.0898 61.7069 91.0782 61.6665 91.0689 61.6256C90.9992 61.3664 90.9652 61.0993 90.9678 60.8314C90.985 60.119 91.2611 59.4358 91.7469 58.9036C92.2327 58.3715 92.8965 58.0251 93.6199 57.9263C94.3432 57.8275 95.079 57.9827 95.6959 58.3642C96.3128 58.7457 96.7707 59.3287 96.9877 60.0091C97.0007 60.0485 97.0123 60.088 97.0209 60.1274C97.0887 60.3825 97.1207 60.6454 97.1162 60.9089H97.1133ZM74.34 60.9089C74.3374 61.3025 74.2547 61.6918 74.0969 62.0541C73.939 62.4164 73.7091 62.7445 73.4204 63.0195C73.1316 63.2945 72.7899 63.5109 72.4148 63.6562C72.0398 63.8015 71.6389 63.8727 71.2355 63.8658C70.5848 63.8661 69.9516 63.6604 69.4311 63.2795C68.9106 62.8986 68.5308 62.3632 68.349 61.7537C68.336 61.7157 68.3259 61.6777 68.3158 61.6397C68.2478 61.3745 68.2143 61.102 68.2162 60.8286C68.2292 59.1516 69.57 57.8801 71.3178 57.8872C71.9732 57.8859 72.611 58.0938 73.134 58.4792C73.657 58.8646 74.0365 59.4064 74.2144 60.0218C74.2277 60.0601 74.2387 60.0991 74.2476 60.1387C74.3128 60.3909 74.3448 60.6502 74.3428 60.9103L74.34 60.9089ZM60.9638 42.9194C61.2207 42.5097 61.974 42.1689 62.3897 41.9338C62.9071 41.6373 63.4677 41.4194 64.0523 41.2875C64.8265 41.118 65.6359 41.1955 66.3616 41.5085C66.7354 41.6747 67.2578 42.1689 67.3545 42.5533C67.3537 42.5566 67.3537 42.5599 67.3545 42.5632C67.4166 42.8279 67.2708 43.0391 66.7238 43.049C65.4493 43.075 64.1791 43.2045 62.9266 43.4362C62.8126 43.4559 62.5109 43.5108 62.166 43.5502C61.6219 43.6066 60.9868 43.6094 60.8772 43.3207C60.8603 43.2517 60.8594 43.18 60.8743 43.1106C60.8893 43.0412 60.9198 42.9759 60.9638 42.9194ZM33.3872 53.356C33.3526 53.2152 33.3208 53.0744 33.2905 52.9406C33.2761 52.8702 33.2617 52.7998 33.2458 52.7294C33.0946 51.9908 32.9876 51.2442 32.9254 50.4934C32.9557 50.071 32.9918 49.4669 33.0336 48.8671C33.5056 42.3449 38.5281 36.0621 44.9723 33.9416C49.9747 32.2998 54.9872 33.5952 57.9473 37.2196L57.9343 37.2308C53.4841 41.042 49.8691 45.691 47.3061 50.8989C46.2798 52.9577 45.4152 55.0896 44.7198 57.2761C44.2387 58.7745 43.8398 60.2969 43.5247 61.8368C43.4541 61.8348 43.3837 61.8283 43.314 61.8171C42.207 61.6411 41.0928 61.5059 40.0522 61.0807C36.4542 59.605 34.4812 57.1254 33.5417 53.9221C33.4839 53.739 33.4349 53.5489 33.3872 53.356ZM74.9793 71.2596C74.9663 71.2117 74.9534 71.1624 74.9418 71.1188L74.9288 71.0723C74.9129 71.0075 74.8971 70.9428 74.8826 70.8766C74.542 69.339 74.861 67.845 75.2276 66.3553C75.2502 66.0013 75.3347 65.6537 75.4773 65.3274C76.0546 63.2153 76.9422 61.2665 78.5327 59.6867C80.3468 57.8844 82.734 57.5563 84.7387 58.6616C85.2999 58.9744 85.8065 59.3722 86.2397 59.8402C87.7422 61.4425 88.5922 63.3265 89.1609 65.3316C89.2484 65.6386 89.3297 65.9483 89.4048 66.2609C89.464 66.5045 89.5188 66.7495 89.5722 66.9959C89.9143 68.5927 90.047 70.188 89.5 71.7721C88.4898 74.7107 85.7028 76.606 82.3458 76.6468C79.7652 76.6778 77.518 75.55 76.1397 73.6716C75.6454 72.9972 75.2707 72.2466 75.0313 71.4511C75.0154 71.3891 74.9966 71.3243 74.9793 71.2596ZM122.03 61.8509C121.992 61.6552 121.952 61.4608 121.91 61.2679C121.908 61.2555 121.906 61.2432 121.901 61.2313C121.855 61.0243 121.808 60.8202 121.757 60.6146C121.587 59.8946 121.4 59.1826 121.196 58.4786C118.757 50.0133 113.998 42.6589 107.729 37.29L107.704 37.2689C110.664 33.6079 115.698 32.2984 120.721 33.9458C126.171 35.7355 130.604 40.506 132.123 45.8806C132.176 46.0665 132.225 46.2523 132.267 46.4438C132.29 46.5396 132.312 46.6339 132.333 46.7254C132.339 46.7434 132.343 46.7618 132.346 46.7803C132.498 47.4686 132.6 48.1663 132.651 48.8685C132.693 49.4683 132.727 50.0738 132.759 50.4948C132.338 55.3653 130.43 59.1192 125.632 61.0863C124.59 61.5087 123.477 61.6495 122.369 61.8227C122.255 61.8413 122.139 61.8512 122.023 61.8523L122.03 61.8509ZM116.517 106.889C116.416 106.879 116.315 106.874 116.212 106.874C115.298 106.874 114.45 107.288 113.743 108C114.678 107.669 115.603 107.303 116.517 106.902C116.517 106.915 116.517 106.929 116.524 106.941C117.238 111.135 117.132 115.423 116.212 119.579C116.166 119.784 116.118 119.993 116.076 120.201H116.094C116.133 120.201 116.172 120.201 116.212 120.201C118.666 120.201 120.657 117.217 120.657 113.538C120.657 110.011 118.83 107.123 116.517 106.889Z" fill="#7D848A"/>
<path opacity="0.39" d="M126.613 113.863C126.613 118.166 123.161 123.471 117.199 124.001C113.024 124.37 109.159 125.234 101.804 126.887C106.432 125.415 111.244 124.392 116.053 123.581C116.534 123.5 117.015 123.42 117.496 123.343L117.595 123.328H117.571C117.86 123.26 118.149 123.187 118.422 123.093C122.773 121.716 125.901 117.914 125.901 113.44C125.894 112.069 125.596 110.714 125.024 109.461C124.453 108.208 123.621 107.085 122.581 106.162C125.176 107.617 126.613 110.329 126.613 113.863Z" fill="#2C343C"/>
<path d="M116.516 106.889V106.898C116.516 106.912 116.516 106.927 116.516 106.941C116.388 110.291 101.344 112.636 82.67 112.636C64.072 112.636 49.1862 110.256 48.9336 106.926C48.9336 106.898 48.9336 106.87 48.9336 106.841C48.9336 103.818 61.3558 101.429 77.4309 100.964H77.519L78.9622 100.929C78.9348 100.987 78.9059 101.046 78.8756 101.103C78.8453 101.161 78.802 101.244 78.7631 101.322H78.7948C79.6997 101.212 80.5267 101.056 81.3494 101.02L81.5442 101.012L81.7319 101.003L82.136 100.982L82.3683 100.968H82.4088L82.5863 100.956H82.6267L82.771 100.943C82.9153 100.929 83.0337 100.915 83.1506 100.896H83.3757C84.1455 100.896 84.9042 100.902 85.6518 100.912C85.6417 100.964 85.633 101.018 85.6215 101.07C85.6099 101.122 85.5984 101.189 85.5854 101.25C85.5724 101.31 85.5666 101.34 85.5565 101.391C85.5464 101.441 85.532 101.502 85.519 101.557C85.506 101.612 85.4973 101.646 85.4858 101.689C85.4743 101.733 85.4569 101.808 85.4411 101.867C85.4209 101.947 85.3992 102.026 85.3761 102.106C85.353 102.186 85.3299 102.267 85.3054 102.347C85.2809 102.427 85.2578 102.506 85.2303 102.588C85.2029 102.669 85.1784 102.748 85.151 102.828L85.1235 102.909C85.0774 103.049 85.0283 103.178 84.9792 103.314C84.9605 103.365 84.9402 103.416 84.92 103.468C84.8998 103.52 84.871 103.593 84.845 103.656C84.7565 103.875 84.6603 104.095 84.5563 104.315C84.526 104.383 84.4943 104.456 84.4611 104.521C84.4279 104.586 84.3759 104.702 84.3312 104.793L84.3716 104.769C86.0314 103.769 86.193 102.403 86.9882 101.474C87.1286 101.328 87.3099 101.225 87.5095 101.179C87.7092 101.133 87.9184 101.145 88.1111 101.213C88.1914 101.18 88.2699 101.143 88.3464 101.102C88.3839 101.082 88.42 101.063 88.4532 101.042C88.4864 101.02 88.5181 101.001 88.5484 100.98H88.6163C89.0608 100.992 89.5015 101.006 89.9383 101.022H89.9542C99.1391 101.351 106.832 102.338 111.535 103.71C114.696 104.61 116.507 105.704 116.516 106.889Z" fill="#18114A"/>
<path opacity="0.77" d="M132.654 48.8666C132.182 42.3444 127.159 36.0616 120.715 33.9411C115.693 32.2936 110.658 33.6046 107.698 37.2641C114.502 43.0808 119.533 51.235 121.751 60.6099C121.849 61.0196 121.942 61.4308 122.023 61.8461C122.14 61.8451 122.256 61.8352 122.372 61.8166C123.48 61.6406 124.593 61.5054 125.635 61.0802C130.433 59.1089 132.341 55.3592 132.762 50.4887C132.73 50.0719 132.696 49.4664 132.654 48.8666Z" fill="#2C343C"/>
<path d="M109.495 105.629C109.525 107.319 107.575 107.541 106.256 107.937C105.534 108.151 104.8 108.346 104.071 108.521C104.041 108.521 104.015 108.537 103.984 108.542C99.0888 109.698 94.0619 110.014 89.0379 110.232C79.9107 110.626 70.8094 110.391 61.8208 108.6C61.7327 108.584 61.6461 108.565 61.5595 108.545C61.369 108.51 61.1742 108.469 60.9822 108.429C59.741 108.169 58.5287 107.725 57.351 107.258C56.6481 106.976 55.8572 106.537 55.8413 105.709C55.8269 105.178 56.1444 104.833 56.5557 104.583C56.5933 104.555 56.6323 104.53 56.6726 104.507C56.8868 104.382 57.108 104.268 57.3351 104.167C59.2691 103.235 61.3676 102.835 63.4603 102.449C67.6674 101.674 71.9308 101.344 76.2 101.203C76.6209 101.211 77.0388 101.133 77.4268 100.974C78.0157 100.692 78.199 100.129 78.2062 99.1517C78.2264 96.3483 77.0516 93.9757 75.718 91.6425C74.4551 89.4558 74.1304 87.3184 74.8044 85.2006C75.1639 84.1269 75.7124 83.1225 76.4252 82.2324C76.258 83.1429 76.2322 84.0728 76.3487 84.9908C76.6619 87.7492 78.1037 90.2007 79.1862 92.7352C80.3581 95.4781 80.3177 98.1591 78.9596 100.932C78.8975 101.062 78.8297 101.193 78.7604 101.324C79.6783 101.215 80.5096 101.054 81.3467 101.019C81.9495 101.005 82.5511 100.961 83.1494 100.888C84.6475 100.664 84.5104 100.043 83.5982 97.6353C83.1019 96.3962 82.5084 95.1962 81.823 94.0461C79.9352 90.7371 80.0536 87.5493 82.7207 83.7855C82.0438 88.2603 83.819 91.5538 85.0963 94.9726C85.8257 96.8646 86.0172 98.9139 85.6506 100.903C85.393 102.247 84.9498 103.551 84.3328 104.778C86.0301 103.777 86.1889 102.396 86.9899 101.46C87.1303 101.314 87.3115 101.211 87.5112 101.165C87.7108 101.118 87.92 101.13 88.1128 101.199C88.2685 101.136 88.4166 101.057 88.5544 100.963C89.5329 100.284 89.3742 99.0461 89.0062 97.6507C88.6829 96.4243 88.0623 95.3528 87.4777 94.2517C86.4674 92.355 86.3635 90.4781 87.9107 87.9703C87.7981 90.9737 88.8647 93.0393 89.963 95.0881C91.044 97.1044 90.2863 99.0447 89.9443 101.002C89.901 101.246 89.8649 101.491 89.8389 101.736C90.7049 100.83 91.7743 101.365 92.7254 101.41C95.5569 101.528 98.3781 101.817 101.173 102.275C102.925 102.569 104.655 102.972 106.354 103.482C107.22 103.742 108.375 103.952 109.011 104.547L109.033 104.567C109.179 104.705 109.296 104.87 109.375 105.052C109.454 105.234 109.495 105.431 109.495 105.629Z" fill="#271B0E"/>
<path d="M66.7212 43.054C65.4478 43.0784 64.1786 43.206 62.9269 43.4356C62.8128 43.4553 62.5112 43.5102 62.1663 43.5496C61.4446 43.6257 60.5455 43.6046 60.9712 42.9188C61.2281 42.5091 61.9815 42.1683 62.3972 41.9332C62.9146 41.6368 63.4752 41.4188 64.0598 41.2869C64.834 41.1174 65.6434 41.1949 66.369 41.508C66.9925 41.798 68.0606 43.0301 66.7212 43.054Z" fill="#010101"/>
<path d="M105.451 43.4103C105.307 43.7905 104.953 43.7651 104.642 43.6919C103.112 43.361 101.578 43.1062 99.9972 43.2005C99.6753 43.2202 99.3405 43.1512 99.2597 42.7499C99.1976 42.4542 99.3564 42.2402 99.5671 42.0698C100.242 41.5247 101.087 41.2176 101.963 41.1982C103.158 41.3292 104.17 41.9149 105.128 42.6063C105.421 42.8189 105.58 43.0752 105.451 43.4103Z" fill="#010101"/>
<path d="M97.1161 60.9084C97.112 61.5022 96.9273 62.0814 96.5854 62.5726C96.2434 63.0638 95.7597 63.4449 95.1954 63.6675C94.6312 63.8901 94.0119 63.9443 93.4161 63.823C92.8203 63.7018 92.2748 63.4107 91.8488 62.9866C91.4228 62.5624 91.1355 62.0245 91.0233 61.4409C90.9112 60.8572 90.9792 60.2543 91.2188 59.7084C91.4583 59.1626 91.8587 58.6984 92.369 58.3748C92.8793 58.0513 93.4766 57.8828 94.0852 57.8909C94.4876 57.894 94.8853 57.9746 95.2556 58.1281C95.626 58.2816 95.9616 58.505 96.2432 58.7854C96.5248 59.0657 96.7469 59.3976 96.8967 59.7619C97.0465 60.1263 97.121 60.5159 97.1161 60.9084Z" fill="#010101"/>
<path d="M74.3423 60.91C74.3316 61.7021 73.9988 62.4575 73.4172 63.0102C72.8355 63.5629 72.0526 63.8675 71.2407 63.8571C70.4289 63.8466 69.6545 63.5219 69.088 62.9545C68.5215 62.387 68.2093 61.6232 68.22 60.8311C68.233 59.1541 69.5738 57.8826 71.3216 57.8897C71.7243 57.8909 72.1227 57.9704 72.4935 58.1235C72.8644 58.2767 73.2002 58.5004 73.4814 58.7815C73.7627 59.0627 73.9837 59.3958 74.1315 59.7612C74.2793 60.1267 74.351 60.5172 74.3423 60.91Z" fill="#010101"/>
<path opacity="0.32" d="M90.5893 72.7393C89.5415 75.8033 86.6665 77.7802 83.1983 77.8224C79.3881 77.8675 76.2822 75.4499 75.4812 71.8016C75.1304 70.1978 75.4595 68.639 75.8377 67.0859C75.8617 66.7172 75.949 66.3549 76.096 66.0144C76.6892 63.815 77.61 61.7789 79.2524 60.1315C81.6237 57.7547 84.9403 57.8363 87.2207 60.292C89.1951 62.4168 90.0784 65.0189 90.6629 67.7548C91.0165 69.4177 91.1536 71.0877 90.5893 72.7393Z" fill="#454E57"/>
<path d="M89.5055 71.7708C88.4952 74.7095 85.7082 76.6047 82.3512 76.6456C78.6637 76.6892 75.6573 74.3701 74.8823 70.8725C74.5417 69.3349 74.8606 67.8409 75.2272 66.3512C75.2499 65.9972 75.3343 65.6496 75.4769 65.3233C76.0542 63.2112 76.9418 61.2624 78.5323 59.6826C80.8271 57.4029 84.0384 57.4818 86.2451 59.8361C88.156 61.8735 89.0119 64.3686 89.5776 66.9961C89.9154 68.5914 90.0597 70.1868 89.5055 71.7708Z" fill="#010101"/>
<path d="M57.9467 37.2239C53.4905 41.037 49.8708 45.6901 47.3055 50.9032C46.2793 52.962 45.4147 55.0939 44.7192 57.2804C44.2381 58.7788 43.8392 60.3012 43.5242 61.8411C43.4536 61.8391 43.3832 61.8326 43.3134 61.8214C42.2065 61.6454 41.0923 61.5102 40.0517 61.085C35.2542 59.1137 33.3448 55.364 32.9248 50.4935C32.9551 50.0711 32.9912 49.467 33.033 48.8672C33.505 42.345 38.5276 36.0622 44.9718 33.9417C49.9741 32.3041 54.988 33.5995 57.9467 37.2239Z" fill="#2C343C"/>
</g>
<defs>
<radialGradient id="paint0_radial_781_891" cx="0" cy="0" r="1" gradientUnits="userSpaceOnUse" gradientTransform="translate(81.9993 80.0007) scale(81.9993 79.9993)">
<stop offset="0.24" stop-color="#1DB0E6"/>
<stop offset="0.62" stop-color="#000031"/>
</radialGradient>
<clipPath id="clip0_781_891">
<rect width="164" height="160" fill="white"/>
</clipPath>
</defs>
</svg>
