<svg width="27" height="26" viewBox="0 0 27 26" fill="none" xmlns="http://www.w3.org/2000/svg">
<path d="M13.1905 26C20.4053 26 26.2541 20.1797 26.2541 13C26.2541 5.8203 20.4053 0 13.1905 0C5.97571 0 0.126953 5.8203 0.126953 13C0.126953 20.1797 5.97571 26 13.1905 26Z" fill="#0D004C"/>
<path d="M21.0999 6.3112C20.8406 5.68758 20.4681 5.13453 20.0593 4.60435C19.7643 4.2223 19.444 3.85995 19.1452 3.48044C19.0276 3.33169 18.9354 3.16259 18.7402 3.09839H18.547C18.3766 3.16387 18.2546 3.28592 18.142 3.42641C17.9126 3.71311 17.6754 3.99281 17.439 4.27379C17.0614 4.72259 16.7028 5.18538 16.4161 5.69839C16.132 6.20567 15.9343 6.73584 15.9985 7.33276C16.1116 8.38294 16.8427 9.29961 17.8503 9.58123C18.9475 9.88827 19.9201 9.63335 20.6594 8.75545C21.2589 8.04347 21.4782 7.22279 21.0999 6.3112ZM19.0168 8.71604C17.7193 8.98621 16.7518 7.87692 16.9609 6.79051C17.0073 6.54959 17.1167 6.32836 17.2387 6.11731C17.6246 5.45047 18.1357 4.88025 18.6385 4.29223C19.1763 4.93746 19.7287 5.55345 20.1292 6.29022C20.6969 7.33276 20.0345 8.50435 19.0168 8.71604Z" fill="#C7EAFB"/>
<path d="M19.1527 14.307C18.7217 13.1316 18.0784 12.0732 17.3569 11.0605C16.0797 9.26847 14.5967 7.64427 13.1835 5.96285C12.9966 5.74036 12.7207 5.73273 12.4989 5.92534C12.4461 5.97175 12.3991 6.02579 12.3533 6.07918C11.893 6.61826 11.4322 7.15669 10.9751 7.6983C10.916 7.76823 10.8836 7.81082 10.8092 7.70847C10.1633 6.82168 9.40937 6.02451 8.71583 5.17713C8.40116 4.79317 8.12209 4.78618 7.79979 5.16315C7.27216 5.78041 6.73945 6.39322 6.22072 7.01747C5.63079 7.72627 5.09172 8.47131 4.67343 9.29708C4.25959 10.114 4.08096 10.9677 4.29456 11.8761C4.56727 13.0375 5.21377 13.9294 6.2417 14.5384C6.33959 14.5962 6.37329 14.6414 6.33769 14.7622C6.2328 15.1207 6.1527 15.4875 6.13617 15.8607C6.05417 17.734 6.63647 19.3729 7.91612 20.7447C9.23964 22.1629 10.8893 22.8673 12.68 22.9016C13.7308 22.894 14.6106 22.7383 15.4345 22.3632C17.634 21.362 18.9741 19.6697 19.4235 17.2897C19.6155 16.2732 19.5087 15.2784 19.1527 14.307ZM5.1572 11.5157C5.0771 10.9219 5.19788 10.379 5.44644 9.85141C5.85074 8.99449 6.41461 8.24373 7.01089 7.51586C7.40693 7.03273 7.81695 6.56104 8.23079 6.07219C8.98092 6.94755 9.73994 7.78349 10.3725 8.7205C10.7545 9.28627 11.1029 9.86857 11.2542 10.5494C11.4112 11.2576 11.2917 11.9251 10.949 12.5436C10.813 12.7896 10.6541 13.0089 10.471 13.2009C10.3216 13.3598 10.1563 13.5003 9.97514 13.6224C9.71642 13.7978 9.42654 13.9358 9.10615 14.0349C7.33128 14.5873 5.40512 13.3535 5.1572 11.5157ZM18.2589 17.9807C17.7148 19.6227 16.6163 20.7765 15.0518 21.4942C14.4225 21.7828 13.4638 21.978 12.4607 21.9621C10.3025 21.8553 8.52258 20.7008 7.50673 18.4549C7.02488 17.3882 6.88629 16.2567 7.20223 15.0991C7.23211 14.9872 7.26135 14.9516 7.37959 14.977C8.65862 15.2529 9.91729 14.8931 10.8346 14.1087C11.45 13.5829 11.9115 12.8665 12.1244 12.0223C12.1391 11.9638 12.1524 11.9053 12.1645 11.8462C12.305 11.1679 12.2579 10.5068 12.0176 9.85204C11.8733 9.45728 11.6915 9.08476 11.4728 8.72877C11.4125 8.63087 11.4214 8.56857 11.4976 8.48085C11.9007 8.01997 12.2973 7.55336 12.6902 7.08422C12.7633 6.99649 12.7989 6.99395 12.8733 7.08295C14.2038 8.6741 15.6081 10.2049 16.7841 11.9206C17.4293 12.8621 18.004 13.8404 18.3415 14.9421C18.6549 15.9649 18.5895 16.9833 18.2589 17.9807Z" fill="#00B9F2"/>
<path d="M15.5871 16.7258C15.5756 16.5656 15.5439 16.4105 15.4714 16.2662C15.3226 15.9674 15.0677 15.7951 14.7639 15.6845C14.6997 15.661 14.6342 15.6426 14.5604 15.6184C14.5922 15.5993 14.6138 15.586 14.6355 15.5733C14.8522 15.4468 15.0111 15.2707 15.1008 15.0336C15.1809 14.8219 15.1847 14.6032 15.1624 14.3826C15.1427 14.1919 15.0843 14.0133 14.9762 13.8518C14.8134 13.609 14.5732 13.4755 14.3087 13.3769C14.0468 13.2791 13.7715 13.2371 13.495 13.2098C13.4359 13.2034 13.4251 13.1831 13.4264 13.1303C13.4289 12.9453 13.4283 12.761 13.427 12.576C13.4264 12.3916 13.4238 12.2066 13.4219 12.0223H12.708C12.708 12.3814 12.7074 12.7406 12.7093 13.0998C12.7099 13.15 12.7017 13.1697 12.6457 13.1691C12.4963 13.1678 12.3469 13.171 12.1982 13.178C12.1448 13.1799 12.1365 13.1608 12.1365 13.1138C12.1384 12.7775 12.1378 12.4406 12.1372 12.1043C12.1372 12.0769 12.1435 12.049 12.1308 12.0223H11.4169C11.4169 12.3891 11.4156 12.7565 11.4188 13.1233C11.4195 13.1862 11.4048 13.204 11.3406 13.2034C11.0508 13.2015 10.7609 13.2015 10.471 13.2009C10.3216 13.3598 10.1563 13.5003 9.97516 13.6223C9.97516 13.7151 9.97389 13.8073 9.97198 13.9001C9.97071 13.9605 9.99041 13.9688 10.0438 13.9681C10.2085 13.965 10.3731 13.9631 10.5371 13.9694C10.6706 13.9745 10.7723 14.0241 10.8346 14.1086C10.8836 14.1735 10.9096 14.258 10.9096 14.3597V17.4505C10.9096 17.6514 10.813 17.748 10.6121 17.7486C10.4653 17.7493 10.3184 17.7493 10.1716 17.7486C10.1385 17.748 10.1169 17.7499 10.1099 17.7931C10.0718 18.0353 10.0336 18.2775 9.9866 18.5185C9.97071 18.5998 9.99614 18.6043 10.0654 18.6043C10.4933 18.603 10.9211 18.6068 11.3489 18.6062C11.4067 18.6062 11.4195 18.6221 11.4188 18.678C11.4163 19.0277 11.4188 19.3767 11.4163 19.7263C11.4163 19.7829 11.4258 19.8038 11.4888 19.8019C11.6814 19.7975 11.8733 19.7975 12.066 19.8019C12.1264 19.8032 12.1403 19.7854 12.1397 19.7269C12.1372 19.3824 12.1397 19.0385 12.1372 18.6939C12.1372 18.6392 12.1467 18.6189 12.2071 18.6214C12.3508 18.6284 12.4957 18.6297 12.64 18.6265C12.6972 18.6253 12.7099 18.6412 12.7099 18.6971C12.7067 19.0442 12.7093 19.3906 12.7074 19.7377C12.7067 19.7841 12.7144 19.8026 12.7678 19.8019C12.9674 19.7981 13.1676 19.7981 13.3672 19.8019C13.4194 19.8026 13.4289 19.7854 13.4283 19.7384C13.4264 19.3913 13.4308 19.0442 13.4251 18.6977C13.4238 18.617 13.4505 18.603 13.5223 18.5992C13.9069 18.5795 14.2865 18.5286 14.6494 18.3881C15.0455 18.2343 15.3341 17.9743 15.479 17.5694C15.5769 17.2967 15.6087 17.0144 15.5871 16.7258ZM12.1511 14.7342C12.1511 14.5193 12.1531 14.3044 12.1505 14.0889C12.1492 14.0362 12.1581 14.0146 12.2192 14.0146C12.5224 14.0133 12.8263 13.9993 13.1263 14.0584C13.3157 14.0953 13.5014 14.1468 13.6444 14.2866C13.9076 14.5435 13.9381 15.0673 13.46 15.2961C13.2757 15.3851 13.0755 15.4175 12.8746 15.4379C12.661 15.4595 12.4455 15.455 12.2306 15.4569C12.1594 15.4576 12.1486 15.4341 12.1499 15.3711C12.1537 15.1588 12.1511 14.9465 12.1511 14.7342ZM13.8033 17.5369C13.5675 17.6609 13.3119 17.7054 13.0526 17.7321C12.7754 17.7613 12.497 17.7582 12.2185 17.7544C12.1581 17.7531 12.1492 17.7334 12.1499 17.68C12.1531 17.4397 12.1511 17.1994 12.1511 16.9585C12.1511 16.7156 12.1518 16.4728 12.1511 16.23C12.1505 16.1924 12.1531 16.1702 12.202 16.1696C12.5739 16.1677 12.9464 16.1492 13.3151 16.2166C13.5065 16.2509 13.694 16.3024 13.8599 16.4105C14.2877 16.6896 14.2553 17.2998 13.8033 17.5369Z" fill="#00B9F2"/>
<path d="M9.66423 10.524C9.20144 9.65623 8.73929 8.78914 8.2765 7.92141C8.25743 7.88582 8.23963 7.85085 8.19195 7.84958C8.1411 7.84831 8.12266 7.88518 8.10232 7.92269C7.64017 8.79041 7.17738 9.65814 6.71459 10.5252C6.66565 10.6161 6.67645 10.6498 6.76736 10.6956C7.21807 10.9225 7.66941 11.1495 8.11949 11.3777C8.1678 11.4025 8.20784 11.4025 8.25552 11.3783C8.71068 11.1476 9.16648 10.9181 9.62227 10.6892C9.66359 10.6683 9.69156 10.6441 9.67758 10.592C9.69093 10.5665 9.67567 10.5456 9.66423 10.524ZM8.10804 11.1991C7.72344 11.0045 7.34266 10.8119 6.9498 10.6136C7.34139 10.4445 7.72217 10.2805 8.10804 10.1139V11.1991ZM8.06418 9.96073C7.70564 10.1139 7.34775 10.2703 6.98922 10.4254C6.9765 10.4311 6.96442 10.4356 6.939 10.4458C7.33059 9.70963 7.71582 8.98621 8.10105 8.26215C8.10423 8.26342 8.10804 8.26406 8.11122 8.26533V8.3111C8.11122 8.83555 8.11058 9.36063 8.11249 9.88508C8.11249 9.92513 8.10232 9.94484 8.06418 9.96073ZM8.26951 11.201V10.1133C8.65601 10.2799 9.03743 10.4445 9.42966 10.6136C9.0387 10.8119 8.65728 11.0045 8.26951 11.201ZM8.29684 9.95183C8.2765 9.94293 8.26696 9.93276 8.26696 9.9086C8.2676 9.36127 8.2676 8.81393 8.27777 8.26215C8.66301 8.98621 9.04824 9.70963 9.44046 10.447C9.04887 10.2773 8.67318 10.1146 8.29684 9.95183Z" fill="#00B9F2"/>
<path d="M9.59059 11.0401C9.57724 11.0446 9.56452 11.0516 9.55181 11.0579C9.11636 11.2842 8.6809 11.5093 8.24609 11.7375C8.20477 11.7591 8.17489 11.7585 8.1342 11.7369C7.69621 11.5074 7.25758 11.2811 6.81895 11.0529C6.77826 11.0319 6.74012 11.0236 6.70643 11.0605C6.67337 11.0974 6.68291 11.1349 6.70897 11.173C7.17685 11.8608 7.64472 12.5493 8.11259 13.2377C8.15518 13.3007 8.21812 13.3019 8.26007 13.2403C8.73112 12.5518 9.20154 11.8634 9.67196 11.1749C9.68403 11.1565 9.69357 11.138 9.69548 11.1158C9.69484 11.0624 9.64081 11.023 9.59059 11.0401ZM8.11195 12.9097V12.9352C8.10814 12.9364 8.10433 12.9383 8.10115 12.9402C7.73944 12.4075 7.37836 11.8748 7.01601 11.3415C7.03572 11.3351 7.04716 11.3497 7.05988 11.3567C7.39743 11.5309 7.73435 11.7063 8.07191 11.8799C8.10115 11.8952 8.11323 11.911 8.11323 11.9447C8.11132 12.2664 8.11195 12.5881 8.11195 12.9097ZM8.27787 12.9421C8.27469 12.9409 8.27088 12.9396 8.2677 12.9383C8.2677 12.6027 8.2677 12.267 8.26706 11.9314C8.26706 11.911 8.27278 11.8983 8.29122 11.8888C8.64403 11.7063 8.99621 11.5239 9.35856 11.3491C8.99875 11.8805 8.63831 12.4113 8.27787 12.9421Z" fill="#00B9F2"/>
<path d="M18.5286 8.14009C18.4936 8.13119 18.4777 8.11021 18.4771 8.07016C18.4758 8.02248 18.4771 7.97481 18.4752 7.92649C18.4733 7.86992 18.465 7.86165 18.4097 7.85212C18.3391 7.84004 18.2686 7.82796 18.2005 7.80571C18.1484 7.78855 18.0969 7.76948 18.0499 7.74087C18.0219 7.72371 18.0092 7.69955 18.0168 7.66649C18.034 7.58639 18.0569 7.5082 18.0842 7.43065C18.0995 7.38679 18.1192 7.37916 18.1618 7.40077C18.2361 7.43764 18.3124 7.46879 18.3932 7.48723C18.4803 7.5063 18.568 7.5241 18.6576 7.50503C18.6913 7.49803 18.7237 7.48786 18.7536 7.47133C18.861 7.41158 18.8795 7.28317 18.793 7.19544C18.7593 7.16175 18.7193 7.13696 18.6767 7.11789C18.601 7.08483 18.5241 7.05432 18.4485 7.0219C18.3379 6.97485 18.2342 6.91701 18.151 6.82801C18.0499 6.71994 18.0168 6.59089 18.0346 6.44659C18.0601 6.23554 18.1834 6.10204 18.3741 6.02322C18.4014 6.01177 18.4288 6.0016 18.4561 5.9908C18.4828 5.98063 18.4968 5.96155 18.4968 5.93295C18.4974 5.87701 18.4987 5.8217 18.5006 5.76576C18.5025 5.71872 18.5152 5.70283 18.561 5.70028C18.6239 5.69647 18.6869 5.69456 18.7492 5.70283C18.7835 5.70728 18.7968 5.72253 18.8019 5.75749C18.8076 5.80263 18.8051 5.8484 18.8064 5.89353C18.8083 5.94884 18.8184 5.96219 18.8731 5.97045C18.9672 5.98507 19.0587 6.00669 19.1458 6.0461C19.1541 6.04992 19.1617 6.05309 19.1693 6.05754C19.1967 6.07471 19.2081 6.0995 19.1999 6.13065C19.1808 6.20503 19.1598 6.2794 19.135 6.35251C19.1191 6.39955 19.0988 6.40781 19.053 6.38747C18.9831 6.35569 18.9119 6.32899 18.8362 6.31755C18.7542 6.30483 18.6716 6.29911 18.5896 6.31945C18.5692 6.32454 18.5508 6.33344 18.533 6.34424C18.4478 6.39955 18.4389 6.50317 18.5139 6.57182C18.568 6.62141 18.6341 6.65128 18.7008 6.67926C18.7968 6.7193 18.8935 6.75745 18.985 6.8083C19.142 6.89603 19.2456 7.02507 19.2749 7.20434C19.3105 7.42429 19.2272 7.59847 19.0524 7.7307C18.9983 7.77138 18.9373 7.79808 18.8731 7.81652C18.807 7.83559 18.793 7.8553 18.793 7.92395C18.793 7.97353 18.7937 8.02248 18.7924 8.07207C18.7911 8.11847 18.772 8.14009 18.732 8.14263C18.711 8.14835 18.6894 8.14072 18.6691 8.14708C18.6385 8.14708 18.6087 8.14708 18.5781 8.14708C18.561 8.13818 18.5438 8.14581 18.5286 8.14009Z" fill="#C7EAFB"/>
<path d="M18.6677 8.14455C18.6881 8.13502 18.7097 8.14137 18.7307 8.1401C18.73 8.14137 18.73 8.14265 18.73 8.14455C18.709 8.14455 18.6881 8.14455 18.6677 8.14455Z" fill="#303030"/>
<path d="M18.5286 8.1401C18.5451 8.14074 18.5616 8.13629 18.5769 8.14455C18.561 8.14455 18.5451 8.14455 18.5292 8.14455C18.5298 8.14264 18.5298 8.14137 18.5286 8.1401Z" fill="#373737"/>
</svg>
