<svg width="26" height="26" viewBox="0 0 26 26" fill="none" xmlns="http://www.w3.org/2000/svg">
<path d="M13 26C20.1797 26 26 20.1797 26 13C26 5.8203 20.1797 0 13 0C5.8203 0 0 5.8203 0 13C0 20.1797 5.8203 26 13 26Z" fill="#0D004C"/>
<path d="M19.6583 7.92206C19.2053 7.46944 18.8011 7.06959 18.4007 6.66592C17.9591 6.22093 17.9363 5.59477 18.3437 5.18411C18.7587 4.76582 19.3742 4.77981 19.8183 5.2248C20.802 6.20949 21.7838 7.19609 22.7637 8.1846C23.2198 8.64485 23.2179 9.23732 22.7587 9.70074C21.7794 10.6899 20.7976 11.6765 19.8133 12.6605C19.3692 13.1049 18.7518 13.1138 18.3393 12.6923C17.9401 12.2842 17.9585 11.6625 18.388 11.227C18.796 10.8138 19.2079 10.4038 19.6551 9.95565C19.5343 9.95565 19.4666 9.95565 19.3989 9.95565C17.6396 9.95565 15.8804 9.95502 14.1211 9.95565C12.8527 9.95629 12.0025 10.8088 11.9956 12.0833C11.9943 12.3764 12 12.6701 11.9937 12.9631C11.9804 13.5759 11.5521 14.0114 10.9714 14.0082C10.3951 14.0057 9.97122 13.5588 9.97312 12.9428C9.97501 12.2391 9.92694 11.5328 10.1313 10.8424C10.6494 9.0981 12.2075 7.93032 14.0604 7.92333C15.8196 7.91634 17.5789 7.92206 19.3382 7.92206C19.4229 7.92206 19.5077 7.92206 19.6583 7.92206Z" fill="#C7EAFB"/>
<path d="M6.37735 18.1148C6.81131 18.5465 7.24275 18.9603 7.65648 19.3907C8.14548 19.8992 8.00314 20.7072 7.38382 21.0123C7.003 21.1999 6.55701 21.1426 6.24577 20.8324C5.21969 19.8121 4.1974 18.7874 3.18397 17.755C2.79871 17.3628 2.79935 16.7525 3.18397 16.3609C4.19803 15.3292 5.21905 14.3032 6.2464 13.2842C6.64747 12.8862 7.2592 12.9034 7.65078 13.2943C8.04616 13.6891 8.05628 14.3115 7.65711 14.7247C7.24022 15.1563 6.80878 15.5739 6.38178 15.9999C6.44757 16.0749 6.52285 16.0405 6.58674 16.0405C8.36183 16.0431 10.1363 16.0437 11.9114 16.0418C13.1342 16.0405 13.9926 15.183 14.0059 13.9542C14.0091 13.6529 14.0034 13.3515 14.0078 13.0509C14.0167 12.4228 14.4443 11.9835 15.0371 11.9893C15.6127 11.995 16.0321 12.4412 16.029 13.0604C16.0258 13.7005 16.0745 14.3439 15.9164 14.9764C15.4565 16.818 13.8623 18.0665 11.936 18.0741C10.1768 18.0811 8.41813 18.0754 6.65886 18.0767C6.57662 18.0786 6.48932 18.0544 6.37735 18.1148Z" fill="#C7EAFB"/>
</svg>
